<?xml version="1.0" standalone="no"?>
<!DOCTYPE svg PUBLIC "-//W3C//DTD SVG 20010904//EN"
 "http://www.w3.org/TR/2001/REC-SVG-20010904/DTD/svg10.dtd">
<svg version="1.0" xmlns="http://www.w3.org/2000/svg"
 width="1692.000000pt" height="450.000000pt" viewBox="0 0 1692.000000 450.000000"
 preserveAspectRatio="xMidYMid meet">
<metadata>
Created by potrace 1.15, written by Peter Selinger 2001-2017
</metadata>
<g transform="translate(0.000000,450.000000) scale(0.100000,-0.100000)"
fill="#000000" stroke="none">
<path d="M2880 4190 c-433 -60 -825 -254 -1130 -560 -276 -275 -453 -604 -537
-997 -26 -121 -28 -142 -28 -388 0 -246 2 -267 28 -388 169 -787 747 -1365
1534 -1534 121 -26 142 -28 388 -28 246 0 267 2 388 28 787 169 1365 747 1534
1534 26 121 28 142 28 388 0 246 -2 267 -28 388 -168 784 -750 1367 -1529
1533 -108 23 -152 26 -353 29 -126 2 -259 0 -295 -5z m290 -835 c217 0 497 4
622 9 214 8 228 8 234 -9 10 -24 18 -12 -282 -417 -469 -634 -1134 -1550
-1134 -1562 0 -3 231 -6 514 -6 l514 0 59 49 c61 51 156 153 287 309 43 50 84
92 90 92 6 0 21 -8 34 -18 l23 -18 -41 -95 c-23 -51 -69 -161 -101 -244 -96
-240 -81 -217 -142 -210 -172 20 -360 26 -947 32 -423 3 -660 9 -668 16 -21
17 -5 45 133 227 196 260 1005 1375 1223 1685 l42 60 -397 3 c-288 2 -410 -1
-443 -9 -34 -10 -61 -28 -110 -78 -67 -68 -249 -290 -296 -361 -28 -42 -42
-47 -76 -29 -27 14 -27 14 83 327 l92 263 146 -8 c80 -5 324 -8 541 -8z"/>
<path d="M5540 3370 l0 -70 623 -2 623 -3 -663 -944 -663 -943 0 -74 0 -74
815 0 815 0 0 70 0 70 -709 2 -709 3 669 943 669 943 0 74 0 75 -735 0 -735 0
0 -70z"/>
<path d="M15420 2350 l0 -1090 75 0 75 0 0 1090 0 1090 -75 0 -75 0 0 -1090z"/>
<path d="M7835 2761 c-96 -27 -139 -46 -217 -97 -395 -262 -443 -893 -94
-1238 82 -81 152 -126 258 -164 65 -24 87 -27 208 -27 114 0 147 4 210 23 112
35 234 99 309 162 l66 56 3 102 c2 71 -1 102 -9 102 -6 0 -42 -31 -80 -70
-119 -120 -271 -208 -399 -231 -248 -44 -522 152 -604 431 -9 30 -19 101 -23
158 l-6 102 582 0 582 0 -5 43 c-3 23 -8 70 -11 105 -11 119 -79 276 -160 370
-52 60 -156 131 -234 160 -93 34 -275 41 -376 13z m245 -137 c154 -35 274
-155 324 -323 30 -101 79 -91 -449 -91 -328 0 -465 3 -465 11 0 6 23 55 51
109 99 194 252 304 432 309 21 1 69 -6 107 -15z"/>
<path d="M9405 2761 c-96 -27 -139 -46 -217 -97 -395 -262 -443 -893 -94
-1238 82 -81 152 -126 258 -164 65 -24 87 -27 208 -27 114 0 147 4 210 23 112
35 234 99 309 162 l66 56 3 102 c2 71 -1 102 -9 102 -6 0 -42 -31 -80 -70
-119 -120 -271 -208 -399 -231 -248 -44 -522 152 -604 431 -9 30 -19 101 -23
158 l-6 102 582 0 582 0 -5 43 c-3 23 -8 70 -11 105 -11 119 -79 276 -160 370
-52 60 -156 131 -234 160 -93 34 -275 41 -376 13z m245 -137 c154 -35 274
-155 324 -323 30 -101 79 -91 -449 -91 -328 0 -465 3 -465 11 0 6 23 55 51
109 99 194 252 304 432 309 21 1 69 -6 107 -15z"/>
<path d="M12721 2764 c-30 -8 -77 -27 -105 -42 -67 -36 -167 -135 -199 -197
l-26 -50 -1 138 0 137 -75 0 -75 0 0 -745 0 -745 79 0 80 0 3 458 c4 440 5
460 27 532 63 208 177 334 341 376 171 44 324 -27 397 -183 49 -106 53 -150
53 -685 l0 -498 81 0 80 0 -4 553 c-3 492 -5 559 -21 612 -53 179 -168 297
-331 340 -74 19 -232 19 -304 -1z"/>
<path d="M14200 2764 c-94 -20 -175 -50 -257 -97 l-73 -41 0 -83 c0 -52 4 -83
11 -83 6 0 29 13 52 29 62 42 156 87 244 117 62 21 98 27 173 28 87 1 101 -2
162 -31 87 -41 151 -101 188 -177 25 -51 30 -75 32 -146 l3 -85 -170 -22
c-415 -55 -594 -113 -715 -234 -144 -144 -127 -403 38 -566 147 -145 423 -188
619 -97 73 35 144 95 189 160 l39 57 5 -76 c6 -89 24 -121 90 -154 54 -28 153
-31 223 -7 l47 16 0 79 c0 85 -5 91 -48 60 -15 -10 -43 -21 -63 -25 -49 -9
-78 16 -90 74 -4 25 -8 236 -9 470 0 338 -3 438 -15 488 -42 178 -169 305
-347 347 -78 18 -241 18 -328 -1z m537 -832 c-11 -205 -54 -327 -151 -426
-156 -160 -403 -177 -556 -39 -82 73 -116 165 -99 260 23 120 145 207 371 265
61 15 361 63 427 67 12 1 13 -20 8 -127z"/>
<path d="M11023 2755 c-151 -33 -315 -156 -401 -300 -85 -144 -122 -284 -122
-463 1 -232 70 -418 209 -559 114 -116 240 -172 401 -180 116 -6 196 9 285 52
71 34 172 119 207 174 l30 46 -5 -195 c-6 -220 -23 -307 -79 -413 -143 -269
-492 -324 -788 -124 -25 17 -68 50 -96 74 -28 24 -56 43 -63 43 -7 0 -11 -30
-11 -94 l0 -94 53 -38 c76 -55 202 -111 303 -135 114 -27 303 -23 402 9 150
48 294 167 357 295 79 162 85 250 85 1175 l0 722 -74 0 -73 0 -7 -80 -7 -79
-50 39 c-63 49 -176 105 -254 125 -72 18 -217 18 -302 0z m258 -135 c76 -14
202 -80 282 -148 l68 -57 -4 -300 c-3 -293 -4 -302 -30 -381 -78 -235 -287
-375 -502 -335 -179 33 -319 163 -389 361 -29 80 -31 94 -31 230 0 124 3 156
23 220 36 114 79 188 157 265 125 125 269 174 426 145z"/>
</g>
</svg>
